# xmcd
#
# Track frame offsets:
#	182
#	12975
#	30095
#	42477
#	56375
#	75692
#	89910
#	105702
#	119317
#	134105
#	152075
#	166917
#
# Disc length: 2383
#
# Revision: 1
# Processed by: cddbd v1.5.1PL0 Copyright (c) Steve Scherf et al.
# Submitted via: NeoAudio 9.9.9
# Normalized: r0:TDELIM( - )
#
DISCID=98094d0c
DTITLE=Various Artist - A Little Bit O' Country
DYEAR=1996
DGENRE=Country
TTITLE0=Shenandoah - If Bubba Can Dance (I Can Too)
TTITLE1=Doug Supernaw - I Don't Call Him Daddy
TTITLE2=Lorrie Morgan - What Part of No
TTITLE3=Collin Raye - That's My Story
TTITLE4=Lee Roy Parnell - I'm Holding My Own
TTITLE5=Alabama - Southern Star
TTITLE6=Aaron Tippin - Working Man's PHD
TTITLE7=John Anderson - Money In The Bank
TTITLE8=Mavericks - There Goes My Heart
TTITLE9=Michelle Wright - Take It Like A Man
TTITLE10=Tracy Lawrence - Somebody Paints The Wall
TTITLE11=Restless Heart - You Can Depend On Me
EXTD=YEAR: 1996
EXTT0=
EXTT1=
EXTT2=
EXTT3=
EXTT4=
EXTT5=
EXTT6=
EXTT7=
EXTT8=
EXTT9=
EXTT10=
EXTT11=
PLAYORDER=
